<svg width="1922" height="1082" viewBox="0 0 1922 1082" fill="none" xmlns="http://www.w3.org/2000/svg">
<rect x="1" y="1" width="1920" height="1080" fill="white"/>
<line x1="1706" y1="334.5" x2="1906" y2="339.5" stroke="#F7F7F7" stroke-width="5"/>
<line x1="1706" y1="355.5" x2="1906" y2="360.5" stroke="#F7F7F7" stroke-width="5"/>
<line x1="1706" y1="376.5" x2="1906" y2="381.5" stroke="#F7F7F7" stroke-width="5"/>
<line x1="1904.5" y1="374" x2="1899.5" y2="574" stroke="#F7F7F7" stroke-width="5"/>
<line x1="1870.5" y1="374" x2="1865.5" y2="574" stroke="#F7F7F7" stroke-width="5"/>
<line x1="1836.5" y1="374" x2="1831.5" y2="574" stroke="#F7F7F7" stroke-width="5"/>
<line x1="1721" y1="324.5" x2="1921" y2="329.5" stroke="#13ECB8" stroke-width="5"/>
<line x1="1721" y1="345.5" x2="1921" y2="350.5" stroke="#13ECB8" stroke-width="5"/>
<line x1="1721" y1="366.5" x2="1921" y2="371.5" stroke="#13ECB8" stroke-width="5"/>
<line x1="1919.5" y1="364" x2="1914.5" y2="564" stroke="#13ECB8" stroke-width="5"/>
<line x1="1885.5" y1="364" x2="1880.5" y2="564" stroke="#13ECB8" stroke-width="5"/>
<line x1="1851.5" y1="364" x2="1846.5" y2="564" stroke="#13ECB8" stroke-width="5"/>
<line x1="890.5" y1="896" x2="885.5" y2="1046" stroke="#D8D8D8" stroke-width="5"/>
<line x1="869.5" y1="896" x2="864.5" y2="1046" stroke="#D8D8D8" stroke-width="5"/>
<line x1="848.5" y1="896" x2="843.5" y2="1046" stroke="#D8D8D8" stroke-width="5"/>
<line x1="851" y1="1079.5" x2="651" y2="1074.5" stroke="#D8D8D8" stroke-width="5"/>
<line x1="851" y1="1045.5" x2="651" y2="1040.5" stroke="#D8D8D8" stroke-width="5"/>
<line x1="851" y1="1011.5" x2="651" y2="1006.5" stroke="#D8D8D8" stroke-width="5"/>
<path d="M0.99999 78.7106C9.48542 61.8715 30.734 35.5434 47.845 64.943C64.9559 94.3425 81.5362 77.6975 87.6875 65.7C91.9302 57.2805 105.208 45.0101 124.378 63.2849C143.547 81.5596 162.331 61.2953 169.327 48.8789" stroke="#DF4C93" stroke-width="2"/>
<path d="M0.99999 96.5053C9.48542 79.6663 30.734 53.3381 47.845 82.7377C64.9559 112.137 81.5362 95.4922 87.6875 83.4947C91.9302 75.0752 105.208 62.8048 124.378 81.0796C143.547 99.3543 162.331 79.09 169.327 66.6736" stroke="#DF4C93" stroke-width="2"/>
<path d="M0.99999 114.505C9.48542 97.6663 30.734 71.3381 47.845 100.738C64.9559 130.137 81.5362 113.492 87.6875 101.495C91.9302 93.0752 105.208 80.8048 124.378 99.0796C143.547 117.354 162.331 97.09 169.327 84.6736" stroke="#DF4C93" stroke-width="2"/>
<path d="M0.99999 164.711C9.48542 147.872 30.734 121.543 47.845 150.943C64.9559 180.343 81.5362 163.697 87.6875 151.7C91.9302 143.28 105.208 131.01 124.378 149.285C143.547 167.56 162.331 147.295 169.327 134.879" stroke="#DF4C93" stroke-width="2"/>
<path d="M0.99999 182.505C9.48542 165.666 30.734 139.338 47.845 168.738C64.9559 198.137 81.5362 181.492 87.6875 169.495C91.9302 161.075 105.208 148.805 124.378 167.08C143.547 185.354 162.331 165.09 169.327 152.674" stroke="#DF4C93" stroke-width="2"/>
<path d="M0.99999 200.505C9.48542 183.666 30.734 157.338 47.845 186.738C64.9559 216.137 81.5362 199.492 87.6875 187.495C91.9302 179.075 105.208 166.805 124.378 185.08C143.547 203.354 162.331 183.09 169.327 170.674" stroke="#DF4C93" stroke-width="2"/>
<ellipse cx="149" cy="496.268" rx="5" ry="4.26829" fill="#C4C4C4"/>
<ellipse cx="169" cy="496.268" rx="5" ry="4.26829" fill="#C4C4C4"/>
<ellipse cx="189" cy="496.268" rx="5" ry="4.26829" fill="#C4C4C4"/>
<ellipse cx="209" cy="496.268" rx="5" ry="4.26829" fill="#C4C4C4"/>
<ellipse cx="149" cy="516.756" rx="5" ry="4.26829" fill="#C4C4C4"/>
<ellipse cx="169" cy="516.756" rx="5" ry="4.26829" fill="#C4C4C4"/>
<ellipse cx="189" cy="516.756" rx="5" ry="4.26829" fill="#C4C4C4"/>
<ellipse cx="209" cy="516.756" rx="5" ry="4.26829" fill="#C4C4C4"/>
<ellipse cx="149" cy="537.244" rx="5" ry="4.26829" fill="#C4C4C4"/>
<ellipse cx="169" cy="537.244" rx="5" ry="4.26829" fill="#C4C4C4"/>
<ellipse cx="189" cy="537.244" rx="5" ry="4.26829" fill="#C4C4C4"/>
<ellipse cx="209" cy="537.244" rx="5" ry="4.26829" fill="#C4C4C4"/>
<ellipse cx="149" cy="557.732" rx="5" ry="4.26829" fill="#C4C4C4"/>
<ellipse cx="169" cy="557.732" rx="5" ry="4.26829" fill="#C4C4C4"/>
<ellipse cx="189" cy="557.732" rx="5" ry="4.26829" fill="#C4C4C4"/>
<ellipse cx="209" cy="557.732" rx="5" ry="4.26829" fill="#C4C4C4"/>
<rect x="1" y="464" width="168" height="245" fill="#73FFCD" fill-opacity="0.44"/>
<rect x="144" y="689" width="51" height="51" fill="#4F93D2" fill-opacity="0.59"/>
<rect x="1566" y="721" width="180" height="180" fill="#FDA0FF"/>
<ellipse cx="1531" cy="684.268" rx="5" ry="4.26829" fill="black"/>
<ellipse cx="1551" cy="684.268" rx="5" ry="4.26829" fill="black"/>
<ellipse cx="1571" cy="684.268" rx="5" ry="4.26829" fill="black"/>
<ellipse cx="1591" cy="684.268" rx="5" ry="4.26829" fill="black"/>
<ellipse cx="1531" cy="704.756" rx="5" ry="4.26829" fill="black"/>
<ellipse cx="1551" cy="704.756" rx="5" ry="4.26829" fill="black"/>
<ellipse cx="1571" cy="704.756" rx="5" ry="4.26829" fill="black"/>
<ellipse cx="1591" cy="704.756" rx="5" ry="4.26829" fill="black"/>
<ellipse cx="1531" cy="725.244" rx="5" ry="4.26829" fill="black"/>
<ellipse cx="1551" cy="725.244" rx="5" ry="4.26829" fill="black"/>
<ellipse cx="1571" cy="725.244" rx="5" ry="4.26829" fill="black"/>
<ellipse cx="1591" cy="725.244" rx="5" ry="4.26829" fill="black"/>
<ellipse cx="1531" cy="745.732" rx="5" ry="4.26829" fill="black"/>
<ellipse cx="1551" cy="745.732" rx="5" ry="4.26829" fill="black"/>
<ellipse cx="1571" cy="745.732" rx="5" ry="4.26829" fill="black"/>
<ellipse cx="1591" cy="745.732" rx="5" ry="4.26829" fill="black"/>
</svg>
