<svg width="2891" height="1531" viewBox="0 0 2891 1531" fill="none" xmlns="http://www.w3.org/2000/svg">
<rect x="84" y="194.673" width="292.539" height="260.629" rx="20" transform="rotate(-27.0129 84 194.673)" fill="#96CCD8"/>
<rect x="393.434" y="381" width="347.151" height="310.332" transform="rotate(30.6991 393.434 381)" fill="#BCF3FF"/>
<rect x="851.67" y="153" width="208.444" height="205.022" rx="20" transform="rotate(30.6991 851.67 153)" fill="#D1FFBC"/>
<rect x="1077.65" y="857" width="92.9091" height="91.3841" rx="20" transform="rotate(30.6991 1077.65 857)" fill="#D1FFBC"/>
<rect x="2760.1" y="571.343" width="60.2" height="403.2" rx="15" fill="#FFEB3B"/>
<rect x="2722.26" y="495" width="124.254" height="63.6807" rx="15" transform="rotate(37.9088 2722.26 495)" fill="#FFEB3B"/>
<path fill-rule="evenodd" clip-rule="evenodd" d="M2891 1071.76C2891 1065.97 2887.68 1060.65 2882.36 1058.38C2854.06 1046.32 2822.91 1039.64 2790.2 1039.64C2660.3 1039.64 2555 1144.95 2555 1274.84C2555 1404.74 2660.3 1510.04 2790.2 1510.04C2822.91 1510.04 2854.06 1503.37 2882.36 1491.3C2887.68 1489.03 2891 1483.72 2891 1477.93V1071.76Z" fill="#FFE609" fill-opacity="0.76"/>
<path fill-rule="evenodd" clip-rule="evenodd" d="M2891 951.516C2891 947.86 2889.69 944.306 2887.16 941.67C2862.7 916.198 2828.3 900.343 2790.2 900.343C2715.97 900.343 2655.8 960.516 2655.8 1034.74C2655.8 1108.97 2715.97 1169.14 2790.2 1169.14C2828.3 1169.14 2862.7 1153.29 2887.16 1127.82C2889.69 1125.18 2891 1121.63 2891 1117.97V951.516Z" fill="#FFE609" fill-opacity="0.76"/>
<rect x="294.875" y="1040" width="24.7069" height="115.179" transform="rotate(17.0537 294.875 1040)" fill="#C4C4C4"/>
<rect x="346.703" y="1046.02" width="22.6779" height="149.151" transform="rotate(-2.98649 346.703 1046.02)" fill="#C4C4C4"/>
<rect x="294.799" y="1056.42" width="16.4272" height="75.1891" transform="rotate(-85.5265 294.799 1056.42)" fill="#C4C4C4"/>
<circle cx="261.167" cy="1146.02" r="26.1668" fill="#C4C4C4"/>
<rect x="437.853" y="795.123" width="24.7069" height="115.179" transform="rotate(-12.9463 437.853 795.123)" fill="#2C716C"/>
<rect x="485.746" y="774.421" width="22.6779" height="149.151" transform="rotate(-32.9865 485.746 774.421)" fill="#2C716C"/>
<rect x="445.999" y="809.384" width="16.4272" height="75.1891" transform="rotate(-115.526 445.999 809.384)" fill="#2C716C"/>
<circle cx="461.672" cy="903.794" r="26.1668" transform="rotate(-30 461.672 903.794)" fill="#2C716C"/>
<rect width="37.1112" height="248.559" rx="15" transform="matrix(-0.999977 0.00676146 0.00676146 0.999977 80.0116 1081.92)" fill="#FFEB3B"/>
<rect width="76.5983" height="39.2569" rx="15" transform="matrix(-0.784817 0.619728 0.619728 0.784817 103.017 1034.7)" fill="#FFEB3B"/>
<path fill-rule="evenodd" clip-rule="evenodd" d="M0.9176 1319C0.892883 1315.34 2.16474 1311.76 4.74708 1309.17C19.6123 1294.28 40.1226 1285.01 62.8278 1284.85C108.585 1284.54 145.93 1321.39 146.239 1367.14C146.548 1412.9 109.705 1450.25 63.9482 1450.56C41.243 1450.71 20.6092 1441.72 5.54394 1427.02C2.92684 1424.47 1.60671 1420.91 1.58199 1417.25L0.9176 1319Z" fill="#FFE609" fill-opacity="0.76"/>
<path fill-rule="evenodd" clip-rule="evenodd" d="M10.0298 1381.26C4.66187 1383.43 1.38948 1388.79 1.42863 1394.58L2.35106 1531H208.586C209.146 1525.66 209.415 1520.23 209.378 1514.73C208.836 1434.66 143.484 1370.18 63.4084 1370.73C44.5329 1370.85 26.5243 1374.58 10.0298 1381.26Z" fill="#FFE609" fill-opacity="0.76"/>
<circle cx="2447" cy="328" r="68" fill="#E7A5FE"/>
<circle cx="2727" cy="164" r="164" fill="#D0ABFF"/>
</svg>
