<svg width="115" height="43" viewBox="0 0 115 43" fill="none" xmlns="http://www.w3.org/2000/svg">
<rect y="19" width="114" height="24" rx="3" fill="black"/>
<path d="M13.008 30.502H15.672V35.614C14.988 36.13 14.196 36.526 13.296 36.802C12.396 37.078 11.49 37.216 10.578 37.216C9.27 37.216 8.094 36.94 7.05 36.388C6.006 35.824 5.184 35.05 4.584 34.066C3.996 33.07 3.702 31.948 3.702 30.7C3.702 29.452 3.996 28.336 4.584 27.352C5.184 26.356 6.012 25.582 7.068 25.03C8.124 24.466 9.312 24.184 10.632 24.184C11.736 24.184 12.738 24.37 13.638 24.742C14.538 25.114 15.294 25.654 15.906 26.362L14.034 28.09C13.134 27.142 12.048 26.668 10.776 26.668C9.972 26.668 9.258 26.836 8.634 27.172C8.01 27.508 7.524 27.982 7.176 28.594C6.828 29.206 6.654 29.908 6.654 30.7C6.654 31.48 6.828 32.176 7.176 32.788C7.524 33.4 8.004 33.88 8.616 34.228C9.24 34.564 9.948 34.732 10.74 34.732C11.58 34.732 12.336 34.552 13.008 34.192V30.502Z" fill="white"/>
<path d="M31.092 37.216C29.292 37.216 27.888 36.718 26.88 35.722C25.884 34.726 25.386 33.304 25.386 31.456V24.4H28.302V31.348C28.302 33.604 29.238 34.732 31.11 34.732C32.022 34.732 32.718 34.462 33.198 33.922C33.678 33.37 33.918 32.512 33.918 31.348V24.4H36.798V31.456C36.798 33.304 36.294 34.726 35.286 35.722C34.29 36.718 32.892 37.216 31.092 37.216Z" fill="white"/>
<path d="M62.104 26.776H58.072V24.4H69.052V26.776H65.02V37H62.104V26.776Z" fill="white"/>
<path d="M85.792 34.3H79.942L78.826 37H75.838L81.454 24.4H84.334L89.968 37H86.908L85.792 34.3ZM84.874 32.086L82.876 27.262L80.878 32.086H84.874Z" fill="white"/>
<path d="M106.522 37L104.092 33.49H103.948H101.41V37H98.494V24.4H103.948C105.064 24.4 106.03 24.586 106.846 24.958C107.674 25.33 108.31 25.858 108.754 26.542C109.198 27.226 109.42 28.036 109.42 28.972C109.42 29.908 109.192 30.718 108.736 31.402C108.292 32.074 107.656 32.59 106.828 32.95L109.654 37H106.522ZM106.468 28.972C106.468 28.264 106.24 27.724 105.784 27.352C105.328 26.968 104.662 26.776 103.786 26.776H101.41V31.168H103.786C104.662 31.168 105.328 30.976 105.784 30.592C106.24 30.208 106.468 29.668 106.468 28.972Z" fill="white"/>
<path fill-rule="evenodd" clip-rule="evenodd" d="M41 5.368H39.1795V0.399999H36.2635V13H39.1795V7.834H41V5.368ZM43 7.834H44.9035V13H47.8195V0.399999H44.9035V5.368H43V7.834ZM0.0720062 2.776H4.10401V13H7.02001V2.776H11.052V0.399999H0.0720062V2.776ZM14.4361 10.3H20.2861L21.4021 13H24.4621L18.8281 0.399999H15.9481L10.3321 13H13.3201L14.4361 10.3ZM17.3701 3.262L19.3681 8.086H15.3721L17.3701 3.262ZM23.7146 2.776H27.7466V13H30.6626V2.776H34.6946V0.399999H23.7146V2.776ZM53.2486 10.3H59.0986L60.2146 13H63.2746L57.6406 0.399999H54.7606L49.1446 13H52.1326L53.2486 10.3ZM56.1826 3.262L58.1806 8.086H54.1846L56.1826 3.262ZM75.5841 6.502H72.9201V10.192C72.2481 10.552 71.4921 10.732 70.6521 10.732C69.8601 10.732 69.1521 10.564 68.5281 10.228C67.9161 9.88 67.4361 9.4 67.0881 8.788C66.7401 8.176 66.5661 7.48 66.5661 6.7C66.5661 5.908 66.7401 5.206 67.0881 4.594C67.4361 3.982 67.9221 3.508 68.5461 3.172C69.1701 2.836 69.8841 2.668 70.6881 2.668C71.9601 2.668 73.0461 3.142 73.9461 4.09L75.8181 2.362C75.2061 1.654 74.4501 1.114 73.5501 0.741999C72.6501 0.37 71.6481 0.184 70.5441 0.184C69.2241 0.184 68.0361 0.466 66.9801 1.03C65.9241 1.582 65.0961 2.356 64.4961 3.352C63.9081 4.336 63.6141 5.452 63.6141 6.7C63.6141 7.948 63.9081 9.07 64.4961 10.066C65.0961 11.05 65.9181 11.824 66.9621 12.388C68.0061 12.94 69.1821 13.216 70.4901 13.216C71.4021 13.216 72.3081 13.078 73.2081 12.802C74.1081 12.526 74.9001 12.13 75.5841 11.614V6.502ZM80.7408 10.3H86.5908L87.7068 13H90.7668L85.1328 0.399999H82.2528L76.6368 13H79.6248L80.7408 10.3ZM83.6748 3.262L85.6728 8.086H81.6768L83.6748 3.262ZM90.0193 2.776H94.0513V13H96.9673V2.776H100.999V0.399999H90.0193V2.776ZM104.383 10.3H110.233L111.349 13H114.409L108.775 0.399999H105.895L100.279 13H103.267L104.383 10.3ZM107.317 3.262L109.315 8.086H105.319L107.317 3.262Z" fill="white"/>
<circle cx="42" cy="2" r="1" fill="white"/>
<circle cx="42" cy="11" r="1" fill="white"/>
<path fill-rule="evenodd" clip-rule="evenodd" d="M49 24H48V37H49V24ZM50 37V24H51V37H50ZM46 24H47V37H46V24Z" fill="#FFFEFE"/>
</svg>
