<svg width="1999" height="1124" viewBox="0 0 1999 1124" fill="none" xmlns="http://www.w3.org/2000/svg">
<rect x="13" y="44" width="1986" height="1077" fill="#F7FFEC"/>
<path d="M289.736 97.5449C293.379 96.3009 297.002 99.4666 296.258 103.243L251.398 330.961C250.654 334.738 246.101 336.293 243.203 333.76L68.4228 181.051C65.5243 178.519 66.4543 173.798 70.0967 172.554L289.736 97.5449Z" fill="#76E265" fill-opacity="0.64"/>
<path d="M348.778 501.804C352.219 500.079 356.237 502.726 356.01 506.568L348.887 627.328C348.661 631.17 344.36 633.326 341.145 631.209L240.126 564.66C236.912 562.543 237.195 557.74 240.636 556.015L348.778 501.804Z" fill="#F4AFFF"/>
<path d="M1696.87 326.164L1749.32 231.321L1782.01 259.099L1696.87 326.164Z" fill="#84ABE6" fill-opacity="0.67"/>
<ellipse cx="1789" cy="211" rx="74" ry="61" fill="#B6D3FF"/>
<path fill-rule="evenodd" clip-rule="evenodd" d="M1185.53 880.691C1185.23 880.102 1184.51 879.869 1183.92 880.17C1183.33 880.471 1183.1 881.192 1183.4 881.78L1186.3 887.462L1179.56 890.912L1176.65 885.231C1176.35 884.642 1175.63 884.409 1175.04 884.71C1174.45 885.011 1174.22 885.732 1174.52 886.32L1177.42 892.002L1163.22 899.266L1163.3 899.429L1136.02 963.933C1131.1 963.794 1126.08 964.853 1121.39 967.252C1109.84 973.154 1103.7 985.437 1105.06 997.601C1103.2 998.225 1101.36 998.995 1099.56 999.915C1079.95 1009.94 1072.19 1033.97 1082.22 1053.59C1092.25 1073.2 1116.28 1080.96 1135.89 1070.93C1155.18 1061.07 1163.01 1037.66 1153.72 1018.24C1165.06 1009.5 1168.93 993.648 1162.18 980.437C1159.7 975.588 1156.09 971.692 1151.84 968.905L1174.93 914.335L1185.96 908.692L1187.78 912.243C1188.08 912.831 1188.8 913.064 1189.39 912.763C1189.98 912.462 1190.21 911.741 1189.91 911.153L1188.09 907.602L1194.84 904.151L1196.65 907.702C1196.95 908.291 1197.68 908.524 1198.26 908.223C1198.85 907.922 1199.09 907.201 1198.78 906.613L1196.97 903.062L1204.07 899.43L1205.89 902.981C1206.19 903.569 1206.91 903.802 1207.5 903.501C1208.09 903.2 1208.32 902.479 1208.02 901.891L1206.2 898.34L1207.44 897.704C1212.05 895.347 1213.88 889.7 1211.52 885.092C1209.16 880.483 1203.52 878.658 1198.91 881.015L1197.66 881.651L1194.76 875.969C1194.46 875.381 1193.74 875.148 1193.15 875.449C1192.56 875.75 1192.33 876.471 1192.63 877.059L1195.53 882.74L1188.43 886.372L1185.53 880.691Z" fill="#41112B" fill-opacity="0.24"/>
<path fill-rule="evenodd" clip-rule="evenodd" d="M1223.06 1123.7C1235.65 1123.79 1245.24 1112.32 1241.38 1100.33C1216.18 1022.02 1143.02 965.085 1056.26 964.424C969.497 963.764 895.474 1019.58 869.084 1097.5C865.044 1109.42 874.46 1121.04 887.053 1121.14L1223.06 1123.7Z" fill="#FADF52"/>
<circle cx="868" cy="963" r="39" fill="#FADF52"/>
<circle cx="1223" cy="953" r="36" stroke="#A5ED96" stroke-width="6"/>
<circle cx="1100.48" cy="442.479" r="69.5" transform="rotate(-32.6815 1100.48 442.479)" stroke="#3AD8C5" stroke-width="5"/>
<circle cx="1115.04" cy="544.816" r="69.5" transform="rotate(-32.6815 1115.04 544.816)" stroke="#3AD8C5" stroke-width="5"/>
<circle cx="1202.1" cy="547.181" r="40.5" transform="rotate(-32.6815 1202.1 547.181)" stroke="#3AD8C5" stroke-width="5"/>
<circle cx="199.5" cy="850.5" r="7.5" fill="black" fill-opacity="0.39"/>
<circle cx="199.5" cy="908.5" r="7.5" fill="black" fill-opacity="0.39"/>
<circle cx="199.5" cy="966.5" r="7.5" fill="black" fill-opacity="0.39"/>
<circle cx="252.5" cy="850.5" r="7.5" fill="black" fill-opacity="0.39"/>
<circle cx="252.5" cy="908.5" r="7.5" fill="black" fill-opacity="0.39"/>
<circle cx="252.5" cy="966.5" r="7.5" fill="black" fill-opacity="0.39"/>
<circle cx="307.5" cy="850.5" r="7.5" fill="black" fill-opacity="0.39"/>
<circle cx="307.5" cy="908.5" r="7.5" fill="black" fill-opacity="0.39"/>
<circle cx="307.5" cy="966.5" r="7.5" fill="black" fill-opacity="0.39"/>
<circle cx="307.5" cy="965.5" r="7.5" fill="black" fill-opacity="0.39"/>
<circle cx="307.5" cy="1010.5" r="7.5" fill="black" fill-opacity="0.39"/>
<circle cx="307.5" cy="1055.5" r="7.5" fill="black" fill-opacity="0.39"/>
<circle cx="365.5" cy="965.5" r="7.5" fill="black" fill-opacity="0.39"/>
<circle cx="365.5" cy="1010.5" r="7.5" fill="black" fill-opacity="0.39"/>
<circle cx="365.5" cy="1055.5" r="7.5" fill="black" fill-opacity="0.39"/>
<circle cx="425.5" cy="965.5" r="7.5" fill="black" fill-opacity="0.39"/>
<circle cx="425.5" cy="1010.5" r="7.5" fill="black" fill-opacity="0.39"/>
<circle cx="425.5" cy="1055.5" r="7.5" fill="black" fill-opacity="0.39"/>
<circle cx="1831" cy="80" r="5" fill="#D761EB"/>
<circle cx="1831" cy="118" r="5" fill="#D761EB"/>
<circle cx="1831" cy="155" r="5" fill="#D761EB"/>
<circle cx="1868" cy="80" r="5" fill="#D761EB"/>
<circle cx="1868" cy="118" r="5" fill="#D761EB"/>
<circle cx="1868" cy="155" r="5" fill="#D761EB"/>
<circle cx="1905" cy="80" r="5" fill="#D761EB"/>
<circle cx="1905" cy="118" r="5" fill="#D761EB"/>
<circle cx="1905" cy="155" r="5" fill="#D761EB"/>
<circle cx="1942" cy="80" r="5" fill="#D761EB"/>
<circle cx="1942" cy="118" r="5" fill="#D761EB"/>
<circle cx="1942" cy="155" r="5" fill="#D761EB"/>
<circle cx="1831" cy="191" r="5" fill="#D761EB"/>
<circle cx="1794" cy="80" r="5" fill="#D761EB"/>
<circle cx="1794" cy="118" r="5" fill="#D761EB"/>
<circle cx="1794" cy="155" r="5" fill="#D761EB"/>
<circle cx="1794" cy="191" r="5" fill="#D761EB"/>
<circle cx="1868" cy="191" r="5" fill="#D761EB"/>
<circle cx="1905" cy="191" r="5" fill="#D761EB"/>
<circle cx="1942" cy="191" r="5" fill="#D761EB"/>
<path fill-rule="evenodd" clip-rule="evenodd" d="M1942.54 627.478C1943.86 626.359 1945.85 626.529 1946.96 627.856C1948.08 629.183 1947.91 631.165 1946.59 632.284L1933.77 643.082L1946.59 658.301L1959.41 647.503C1960.74 646.384 1962.72 646.554 1963.84 647.881C1964.95 649.208 1964.78 651.19 1963.46 652.309L1950.64 663.107L1977.64 695.147L1977.27 695.457L1977.7 879.383C1985.28 882.322 1992.48 886.452 1999 891.747V1124H1858.83C1833.93 1081.59 1841.83 1026.42 1879.59 992.841C1861.01 960.137 1867.77 917.83 1897.57 892.722C1908.51 883.507 1921.2 877.744 1934.33 875.319L1933.97 719.715L1912.99 694.827L1904.98 701.576C1903.66 702.694 1901.68 702.524 1900.56 701.197C1899.44 699.87 1899.61 697.888 1900.94 696.77L1908.95 690.021L1896.12 674.801L1888.11 681.55C1886.78 682.669 1884.8 682.499 1883.68 681.172C1882.57 679.845 1882.74 677.863 1884.06 676.744L1892.07 669.995L1878.58 653.976L1870.57 660.725C1869.24 661.843 1867.26 661.673 1866.14 660.346C1865.02 659.019 1865.19 657.037 1866.52 655.919L1874.53 649.17L1869.19 642.838C1862.07 634.391 1863.15 621.773 1871.6 614.656L1878.66 608.71C1887.1 601.593 1899.72 602.671 1906.84 611.118L1912.17 617.451L1924.99 606.654C1926.32 605.536 1928.3 605.705 1929.42 607.033C1930.53 608.36 1930.37 610.342 1929.04 611.46L1916.22 622.257L1929.72 638.276L1942.54 627.478Z" fill="#FB349F" fill-opacity="0.24"/>
</svg>
